<svg width="14" height="14" viewBox="0 0 14 14" fill="none" xmlns="http://www.w3.org/2000/svg">
<path d="M5.08261 10.1895L7.96092 7.30774L8.78965 8.13684L9.61838 8.96584L6.09621 10.9434C4.15902 12.031 2.49085 12.9548 2.38917 12.9961C2.2442 13.0551 2.82565 12.4492 5.08261 10.1895ZM1.63941 12.8159C1.59651 12.7509 1.54081 12.625 1.51563 12.5373C1.45153 12.3137 1.45443 1.67934 1.51863 1.44794C1.54523 1.35194 1.60373 1.22924 1.64866 1.17434C1.72926 1.07634 1.77136 1.11534 4.69159 4.03714L7.65279 6.99964L4.68508 9.96734L1.71737 12.935L1.63941 12.8159ZM9.14246 7.87294L8.26965 6.99924L9.14588 6.12714L10.0221 5.25504L11.1105 5.86614C12.3364 6.55444 12.5311 6.70984 12.5311 6.99954C12.5311 7.28104 12.3413 7.43864 11.3014 8.02044C10.8063 8.29744 10.3143 8.57414 10.2082 8.63544L10.0153 8.74674L9.14246 7.87294ZM5.07067 3.79774C2.7962 1.52034 2.24311 0.943439 2.39229 1.00424C2.49568 1.04624 4.16398 1.96994 6.09961 3.05674L9.61894 5.03264L8.80234 5.85024C8.35322 6.29994 7.97479 6.66784 7.9614 6.66784C7.948 6.66784 6.64718 5.37634 5.07067 3.79774Z" fill="white"/>
</svg>
