<svg width="416" height="50" viewBox="0 0 416 50" fill="none" xmlns="http://www.w3.org/2000/svg">
<g clip-path="url(#clip0_266_13018)">
<g clip-path="url(#clip1_266_13018)">
<g clip-path="url(#clip2_266_13018)">
<g clip-path="url(#clip3_266_13018)">
<mask id="mask0_266_13018" style="mask-type:luminance" maskUnits="userSpaceOnUse" x="0" y="10" width="93" height="29">
<path d="M92.0787 10.5911H0.0297852V38.2106H92.0787V10.5911Z" fill="white"/>
</mask>
<g mask="url(#mask0_266_13018)">
<path d="M31.6301 24.228C31.6035 23.5855 31.7072 22.9442 31.9356 22.3412C32.1639 21.7381 32.5121 21.1852 32.9603 20.7143C33.4085 20.2434 33.9476 19.8638 34.5467 19.5976C35.1457 19.3313 35.7928 19.1835 36.4506 19.1628H36.6551C39.1974 19.1628 40.6979 20.624 41.1416 22.3334L39.5613 22.8497C39.4194 22.2127 39.0477 21.6467 38.5142 21.2551C37.9807 20.8635 37.3208 20.6724 36.6551 20.7165C35.01 20.7165 33.3599 21.8902 33.3599 24.2572C33.3599 26.6242 34.9701 27.7541 36.675 27.7541C37.3441 27.7719 38 27.57 38.5377 27.1806C39.0754 26.7913 39.464 26.2369 39.6411 25.6063L41.1915 26.0933C40.9238 27.0553 40.3286 27.8994 39.5039 28.4864C38.6792 29.0734 37.6743 29.3683 36.6551 29.3223C35.3456 29.3458 34.0802 28.8603 33.137 27.9726C32.1938 27.0849 31.65 25.8677 31.6251 24.5884C31.6201 24.4715 31.6251 24.3497 31.6301 24.228Z" fill="white" fill-opacity="0.5"/>
<path d="M44.2674 29.0984H42.6323V19.1338H44.2674V23.03C44.5048 22.755 44.8034 22.5365 45.1403 22.3913C45.4773 22.2461 45.8436 22.1781 46.2117 22.1924C47.9014 22.1924 48.7042 23.3758 48.7042 24.8515V29.0984H47.129V25.134C47.1761 24.7961 47.0855 24.4535 46.8768 24.1802C46.6676 23.9069 46.3575 23.7247 46.012 23.6729C45.9142 23.6631 45.8159 23.6631 45.7181 23.6729C45.3401 23.6729 44.9773 23.8196 44.7099 24.0809C44.4426 24.3421 44.2923 24.6964 44.2923 25.0658C44.2899 25.1063 44.2899 25.147 44.2923 25.1876L44.2674 29.0984Z" fill="white" fill-opacity="0.5"/>
<path d="M52.3729 25.2604L54.1279 24.9926C54.5263 24.9439 54.6259 24.7442 54.6259 24.5056C54.6259 23.9406 54.2374 23.4877 53.3301 23.4877C52.9873 23.4606 52.6477 23.5666 52.3847 23.7827C52.1212 23.9988 51.9559 24.3075 51.9242 24.6419V24.715L50.4287 24.3887C50.5532 23.2295 51.6304 22.197 53.3151 22.197C55.4287 22.197 56.2315 23.3659 56.2315 24.7296V28.056C56.2297 28.4164 56.2577 28.7764 56.3162 29.1323H54.8206C54.7667 28.8498 54.745 28.5624 54.7559 28.2752C54.5286 28.6165 54.2144 28.8937 53.8431 29.0791C53.4723 29.2646 53.0584 29.3517 52.6423 29.332C52.0736 29.3779 51.5099 29.2016 51.0743 28.8419C50.6388 28.4821 50.3671 27.9683 50.3191 27.4131C50.3191 27.379 50.3191 27.3449 50.3191 27.3157C50.2942 26.0835 51.1966 25.4212 52.3729 25.2604ZM54.6363 26.3368V26.03L52.8465 26.2929C52.6034 26.3005 52.3729 26.3994 52.2031 26.5692C52.0329 26.7389 51.9369 26.9662 51.9342 27.2037C51.936 27.3214 51.9622 27.4375 52.0102 27.5453C52.0587 27.653 52.1284 27.7504 52.2158 27.8315C52.3032 27.9127 52.406 27.9761 52.5187 28.0179C52.631 28.0598 52.751 28.0794 52.8714 28.0755H52.9461C53.1503 28.0964 53.3563 28.0776 53.5533 28.0202C53.7498 27.9629 53.9327 27.8681 54.0917 27.7413C54.2506 27.6146 54.3823 27.4584 54.4792 27.2816C54.5761 27.105 54.6363 26.9113 54.6563 26.7118C54.6631 26.5863 54.6549 26.4604 54.6314 26.3368H54.6363Z" fill="white" fill-opacity="0.5"/>
<path d="M59.0127 18.9971C59.1535 18.9951 59.293 19.0204 59.4234 19.0712C59.5538 19.1221 59.6729 19.1978 59.7734 19.2937C59.8739 19.3896 59.954 19.504 60.0093 19.6303C60.0641 19.7566 60.0935 19.8923 60.0944 20.0296C60.0944 20.2351 60.0324 20.436 59.916 20.6071C59.7992 20.7781 59.6335 20.9117 59.4392 20.991C59.2454 21.0703 59.0317 21.0918 58.8253 21.0527C58.6188 21.0137 58.4286 20.9159 58.2788 20.7716C58.1289 20.6273 58.0261 20.4429 57.9835 20.2417C57.9405 20.0405 57.9596 19.8314 58.0379 19.6408C58.1162 19.45 58.2507 19.2863 58.4241 19.17C58.598 19.0538 58.8026 18.9902 59.0127 18.9873V18.9971ZM58.2154 29.1273V22.3965H59.8503V29.0981L58.2154 29.1273Z" fill="white" fill-opacity="0.5"/>
<path d="M63.5742 29.0981H61.9442V22.3965H63.5344V23.2878C63.7417 22.9456 64.0397 22.6641 64.3965 22.4731C64.7537 22.2819 65.1567 22.1882 65.5633 22.2017C67.2386 22.2017 68.0558 23.3852 68.0558 24.8609V29.0981H66.4258V25.1336C66.4258 24.3106 66.0419 23.6434 65.015 23.6434C64.8252 23.6446 64.6373 23.6824 64.4626 23.7546C64.2878 23.8267 64.1289 23.9318 63.9957 24.0639C63.8622 24.196 63.7571 24.3524 63.6856 24.5242C63.6141 24.6961 63.5778 24.88 63.5792 25.0655C63.5792 25.1191 63.5792 25.1726 63.5792 25.2262L63.5742 29.0981Z" fill="white" fill-opacity="0.5"/>
<path d="M70.0299 29.0984V19.1338H71.6649V29.0984H70.0299Z" fill="white" fill-opacity="0.5"/>
<path d="M74.5812 18.9971C74.7918 18.9961 74.9978 19.0563 75.173 19.1699C75.3487 19.2835 75.4854 19.4454 75.5665 19.6352C75.6475 19.8249 75.6688 20.0339 75.628 20.2356C75.5873 20.4373 75.4859 20.6226 75.3374 20.7679C75.1884 20.9133 74.9987 21.0122 74.7922 21.0521C74.5857 21.092 74.372 21.071 74.1778 20.9919C73.9835 20.9128 73.8178 20.7791 73.7015 20.6077C73.5851 20.4364 73.5235 20.2352 73.5244 20.0296C73.5271 19.7565 73.6394 19.4954 73.8368 19.3023C74.0347 19.1092 74.3018 18.9996 74.5812 18.9971ZM73.7789 29.1273V22.3965H75.3989V29.0981L73.7789 29.1273Z" fill="white" fill-opacity="0.5"/>
<path d="M79.1476 29.098H77.5126V22.3964H79.1027V23.2877C79.3106 22.9458 79.6085 22.6647 79.9653 22.4736C80.3221 22.2826 80.725 22.1887 81.1316 22.2016C82.8065 22.2016 83.6242 23.3851 83.6242 24.8608V29.098H81.9892V25.1335C82.0363 24.7956 81.9457 24.4531 81.737 24.1798C81.5278 23.9065 81.2177 23.7243 80.8726 23.6725C80.773 23.6627 80.673 23.6627 80.5734 23.6725C80.1926 23.6763 79.8285 23.8268 79.5609 24.0913C79.2929 24.3557 79.1426 24.7128 79.1426 25.0849C79.1376 25.1416 79.1376 25.1986 79.1426 25.2553L79.1476 29.098Z" fill="white" fill-opacity="0.5"/>
<path d="M89.2024 25.2265L92.0789 29.1228H90.0849L88.0908 26.3613L87.2482 27.2282V29.0984H85.6282V19.1338H87.2482V25.1048L89.8807 22.3969H92.049L89.2024 25.2265Z" fill="white" fill-opacity="0.5"/>
<path d="M13.182 16.9558L19.7284 20.659V28.1016L13.2005 31.8276L6.65875 28.1335V20.6953L13.182 16.9558ZM13.182 11.4966L10.7814 12.8614L4.24426 16.6009L1.84363 17.9657V30.8722L4.24426 32.237L10.7906 35.9401L13.1913 37.305L15.5919 35.9401L22.1152 32.2097L24.5158 30.8449V17.9202L22.1152 16.5554L15.5734 12.8614L13.1728 11.4966H13.182Z" fill="white" fill-opacity="0.5"/>
</g>
</g>
</g>
</g>
<g clip-path="url(#clip4_266_13018)">
<g clip-path="url(#clip5_266_13018)">
<g clip-path="url(#clip6_266_13018)">
<mask id="mask1_266_13018" style="mask-type:luminance" maskUnits="userSpaceOnUse" x="115" y="11" width="95" height="26">
<path d="M209.864 11.9382H115.669V36.8634H209.864V11.9382Z" fill="white"/>
</mask>
<g mask="url(#mask1_266_13018)">
<path d="M145 23.9211C145 27.9964 147.682 30.8379 151.399 30.8379C155.116 30.8379 157.798 27.9964 157.798 23.9211C157.798 19.8459 155.116 17.0044 151.399 17.0044C147.682 17.0044 145 19.8459 145 23.9211ZM155.346 23.9211C155.346 26.8374 153.717 28.7254 151.399 28.7254C149.081 28.7254 147.453 26.8374 147.453 23.9211C147.453 21.0049 149.081 19.1168 151.399 19.1168C153.717 19.1168 155.346 21.0049 155.346 23.9211Z" fill="white" fill-opacity="0.5"/>
<path d="M164.704 30.8375C167.52 30.8375 169.129 28.5194 169.129 25.734C169.129 22.9487 167.52 20.6306 164.704 20.6306C163.401 20.6306 162.443 21.1353 161.811 21.8644V20.8176H159.512V33.9967H161.811V29.6037C162.443 30.3327 163.401 30.8375 164.704 30.8375ZM161.753 25.4536C161.753 23.6029 162.826 22.5934 164.244 22.5934C165.91 22.5934 166.811 23.8646 166.811 25.734C166.811 27.6034 165.91 28.8746 164.244 28.8746C162.826 28.8746 161.753 27.8464 161.753 26.0331V25.4536Z" fill="white" fill-opacity="0.5"/>
<path d="M175.351 30.8375C177.363 30.8375 178.953 29.8093 179.661 28.0894L177.688 27.3604C177.381 28.3699 176.481 28.9307 175.351 28.9307C173.875 28.9307 172.841 27.9025 172.669 26.2201H179.719V25.4723C179.719 22.7804 178.167 20.6306 175.255 20.6306C172.343 20.6306 170.465 22.8552 170.465 25.734C170.465 28.7624 172.477 30.8375 175.351 30.8375ZM175.236 22.5187C176.692 22.5187 177.381 23.4534 177.401 24.5376H172.783C173.129 23.2104 174.048 22.5187 175.236 22.5187Z" fill="white" fill-opacity="0.5"/>
<path d="M181.444 30.6318H183.743V24.8741C183.743 23.4721 184.797 22.7243 185.831 22.7243C187.096 22.7243 187.594 23.6029 187.594 24.818V30.6318H189.893V24.1638C189.893 22.0513 188.629 20.6306 186.521 20.6306C185.218 20.6306 184.318 21.2101 183.743 21.8644V20.8176H181.444V30.6318Z" fill="white" fill-opacity="0.5"/>
<path d="M196.626 17.2102L191.415 30.6324H193.848L195.017 27.5666H200.956L202.144 30.6324H204.615L199.404 17.2102H196.626ZM197.967 19.8647L200.151 25.4729H195.822L197.967 19.8647Z" fill="white" fill-opacity="0.5"/>
<path d="M208.562 17.2488H206.11V30.671H208.562V17.2488Z" fill="white" fill-opacity="0.5"/>
<path d="M139.382 22.1398C139.962 20.4425 139.762 18.5832 138.835 17.0394C137.442 14.6715 134.64 13.4533 131.903 14.0266C130.686 12.6884 128.937 11.9274 127.103 11.9383C124.306 11.9321 121.824 13.6893 120.964 16.2862C119.167 16.6453 117.616 17.7428 116.708 19.2983C115.304 21.6599 115.624 24.6369 117.5 26.6621C116.921 28.3593 117.12 30.2186 118.047 31.7624C119.441 34.1303 122.243 35.3485 124.979 34.7752C126.196 36.1134 127.945 36.8744 129.779 36.8627C132.578 36.8697 135.06 35.1109 135.921 32.5117C137.718 32.1526 139.269 31.0552 140.176 29.4997C141.579 27.138 141.258 24.1634 139.383 22.1382L139.382 22.1398ZM129.781 35.234C128.661 35.2356 127.576 34.8531 126.716 34.1529C126.755 34.1326 126.823 34.096 126.867 34.0695L131.953 31.2032C132.214 31.0591 132.373 30.7887 132.372 30.4967V23.4997L134.521 24.7109C134.545 24.7218 134.56 24.7436 134.563 24.7686V30.5629C134.56 33.1395 132.421 35.2286 129.781 35.234ZM119.496 30.9477C118.935 30.002 118.733 28.8937 118.925 27.818C118.962 27.8398 119.029 27.8796 119.076 27.906L124.162 30.7724C124.42 30.9196 124.74 30.9196 124.998 30.7724L131.208 27.2735V29.6959C131.209 29.7209 131.197 29.745 131.178 29.7606L126.036 32.6574C123.746 33.9441 120.821 33.1793 119.497 30.9477H119.496ZM118.157 20.1138C118.716 19.1666 119.598 18.4422 120.648 18.0661C120.648 18.1089 120.646 18.1844 120.646 18.2374V23.971C120.644 24.2623 120.804 24.5325 121.064 24.6767L127.273 28.1748L125.124 29.3859C125.102 29.4 125.075 29.4023 125.051 29.3922L119.908 26.4931C117.623 25.2017 116.839 22.3485 118.156 20.1146L118.157 20.1138ZM135.819 24.1244L129.61 20.6255L131.759 19.4151C131.781 19.4011 131.808 19.3988 131.832 19.4089L136.975 22.3056C139.264 23.5963 140.049 26.4541 138.726 28.688C138.166 29.6336 137.285 30.358 136.235 30.735V24.8301C136.238 24.5388 136.079 24.2693 135.82 24.1244H135.819ZM137.959 20.9823C137.921 20.9597 137.855 20.9207 137.808 20.8943L132.721 18.0279C132.464 17.8807 132.144 17.8807 131.886 18.0279L125.676 21.5267V19.1043C125.674 19.0794 125.686 19.0553 125.706 19.0397L130.848 16.1452C133.138 14.8561 136.066 15.6234 137.386 17.8588C137.944 18.8029 138.146 19.9082 137.957 20.9823H137.959ZM124.507 25.2998L122.357 24.0886C122.334 24.0777 122.318 24.0558 122.315 24.0309V18.2366C122.317 15.6569 124.462 13.5663 127.106 13.5678C128.224 13.5678 129.306 13.9511 130.166 14.649C130.127 14.6692 130.06 14.7058 130.015 14.7323L124.929 17.5987C124.669 17.7428 124.509 18.0123 124.51 18.3044L124.507 25.2982V25.2998ZM125.675 22.8431L128.441 21.2845L131.207 22.8423V25.9587L128.441 27.5165L125.675 25.9587V22.8431Z" fill="white" fill-opacity="0.5"/>
</g>
</g>
</g>
</g>
<g clip-path="url(#clip7_266_13018)">
<g clip-path="url(#clip8_266_13018)">
<g clip-path="url(#clip9_266_13018)">
<path d="M278.158 21.2649C278.158 21.7365 278.207 22.119 278.293 22.3994C278.392 22.6798 278.515 22.9858 278.687 23.3172C278.749 23.4192 278.774 23.5212 278.774 23.6104C278.774 23.7379 278.7 23.8654 278.54 23.9928L277.763 24.5282C277.652 24.6047 277.542 24.6429 277.443 24.6429C277.32 24.6429 277.197 24.5792 277.073 24.4645C276.901 24.2733 276.753 24.0693 276.63 23.8654C276.506 23.6486 276.383 23.4064 276.248 23.1132C275.287 24.286 274.079 24.8724 272.625 24.8724C271.59 24.8724 270.764 24.5664 270.161 23.9546C269.557 23.3427 269.249 22.5269 269.249 21.5071C269.249 20.4236 269.618 19.544 270.37 18.8812C271.122 18.2183 272.12 17.8869 273.389 17.8869C273.808 17.8869 274.239 17.9251 274.695 17.9888C275.151 18.0526 275.619 18.1545 276.112 18.2693V17.3387C276.112 16.3699 275.915 15.6943 275.533 15.2992C275.139 14.904 274.473 14.7128 273.525 14.7128C273.093 14.7128 272.65 14.7638 272.194 14.8785C271.738 14.9932 271.294 15.1335 270.863 15.3119C270.666 15.4011 270.518 15.4521 270.432 15.4776C270.345 15.5031 270.284 15.5159 270.235 15.5159C270.062 15.5159 269.976 15.3884 269.976 15.1207V14.4961C269.976 14.2921 270 14.1392 270.062 14.0499C270.124 13.9607 270.235 13.8715 270.407 13.7822C270.838 13.5528 271.356 13.3616 271.96 13.2086C272.563 13.0429 273.204 12.9664 273.882 12.9664C275.348 12.9664 276.42 13.3106 277.11 13.9989C277.788 14.6873 278.133 15.7326 278.133 17.1348V21.2649H278.158ZM273.155 23.2025C273.562 23.2025 273.98 23.126 274.424 22.9731C274.868 22.8201 275.262 22.5396 275.595 22.1572C275.792 21.915 275.94 21.6473 276.014 21.3414C276.088 21.0355 276.137 20.6658 276.137 20.2324V19.697C275.779 19.6078 275.397 19.5313 275.003 19.4803C274.609 19.4293 274.227 19.4038 273.845 19.4038C273.019 19.4038 272.416 19.5695 272.009 19.9137C271.602 20.2578 271.405 20.7422 271.405 21.3796C271.405 21.9788 271.553 22.4249 271.861 22.7308C272.157 23.0495 272.588 23.2025 273.155 23.2025ZM283.05 24.5792C282.828 24.5792 282.68 24.541 282.581 24.4517C282.483 24.3752 282.396 24.1968 282.323 23.9546L279.427 14.1009C279.353 13.846 279.316 13.6803 279.316 13.591C279.316 13.3871 279.414 13.2723 279.612 13.2723H280.819C281.053 13.2723 281.213 13.3106 281.3 13.3998C281.398 13.4763 281.472 13.6548 281.546 13.897L283.616 22.3357L285.539 13.897C285.6 13.642 285.674 13.4763 285.773 13.3998C285.871 13.3233 286.044 13.2723 286.266 13.2723H287.251C287.485 13.2723 287.646 13.3106 287.744 13.3998C287.843 13.4763 287.929 13.6548 287.978 13.897L289.925 22.4377L292.057 13.897C292.131 13.642 292.217 13.4763 292.303 13.3998C292.402 13.3233 292.562 13.2723 292.784 13.2723H293.93C294.127 13.2723 294.238 13.3743 294.238 13.591C294.238 13.6548 294.226 13.7185 294.213 13.795C294.201 13.8715 294.176 13.9734 294.127 14.1137L291.157 23.9673C291.084 24.2223 290.997 24.388 290.899 24.4645C290.8 24.541 290.64 24.5919 290.43 24.5919H289.371C289.137 24.5919 288.976 24.5537 288.878 24.4645C288.779 24.3752 288.693 24.2095 288.644 23.9546L286.734 15.7326L284.836 23.9418C284.775 24.1968 284.701 24.3625 284.602 24.4517C284.504 24.541 284.331 24.5792 284.109 24.5792H283.05ZM298.883 24.9234C298.243 24.9234 297.602 24.8469 296.986 24.6939C296.37 24.541 295.889 24.3752 295.569 24.1841C295.372 24.0693 295.236 23.9418 295.187 23.8271C295.137 23.7124 295.113 23.5849 295.113 23.4702V22.8201C295.113 22.5524 295.211 22.4249 295.396 22.4249C295.47 22.4249 295.544 22.4377 295.618 22.4631C295.692 22.4886 295.803 22.5396 295.926 22.5906C296.345 22.7818 296.801 22.9348 297.281 23.0368C297.774 23.1388 298.255 23.1898 298.748 23.1898C299.524 23.1898 300.128 23.0495 300.547 22.7691C300.966 22.4886 301.188 22.0807 301.188 21.5581C301.188 21.2012 301.077 20.908 300.855 20.6658C300.633 20.4236 300.214 20.2069 299.61 20.0029L297.824 19.4293C296.924 19.1361 296.259 18.7027 295.852 18.1291C295.446 17.5682 295.236 16.9436 295.236 16.2807C295.236 15.7453 295.347 15.2737 295.569 14.8658C295.791 14.4578 296.086 14.1009 296.456 13.8205C296.826 13.5273 297.245 13.3106 297.737 13.1576C298.23 13.0047 298.748 12.9409 299.29 12.9409C299.561 12.9409 299.844 12.9537 300.116 12.9919C300.399 13.0301 300.658 13.0811 300.917 13.1321C301.163 13.1959 301.397 13.2596 301.619 13.3361C301.841 13.4126 302.013 13.4891 302.136 13.5655C302.309 13.6675 302.432 13.7695 302.506 13.8842C302.58 13.9862 302.617 14.1264 302.617 14.3049V14.904C302.617 15.1717 302.518 15.3119 302.334 15.3119C302.235 15.3119 302.075 15.2609 301.865 15.1589C301.163 14.8275 300.374 14.6618 299.499 14.6618C298.797 14.6618 298.243 14.7765 297.861 15.0187C297.479 15.2609 297.281 15.6306 297.281 16.1532C297.281 16.5102 297.405 16.8161 297.651 17.0583C297.898 17.3005 298.354 17.5427 299.007 17.7594L300.756 18.333C301.644 18.6262 302.284 19.0341 302.666 19.5568C303.048 20.0794 303.233 20.6785 303.233 21.3414C303.233 21.8895 303.122 22.3867 302.913 22.8201C302.691 23.2535 302.395 23.6359 302.013 23.9418C301.631 24.2605 301.175 24.49 300.645 24.6557C300.091 24.8341 299.512 24.9234 298.883 24.9234Z" fill="white" fill-opacity="0.5"/>
<path fill-rule="evenodd" clip-rule="evenodd" d="M301.212 31.1187C297.158 34.2163 291.268 35.8606 286.204 35.8606C279.106 35.8606 272.711 33.1455 267.881 28.633C267.499 28.276 267.844 27.7916 268.3 28.072C273.524 31.2079 279.969 33.1073 286.635 33.1073C291.133 33.1073 296.074 32.1384 300.621 30.1499C301.298 29.8312 301.878 30.6087 301.212 31.1187Z" fill="white" fill-opacity="0.5"/>
<path fill-rule="evenodd" clip-rule="evenodd" d="M302.901 29.1298C302.383 28.4415 299.475 28.7984 298.157 28.9641C297.762 29.0151 297.701 28.6582 298.058 28.3905C300.375 26.7079 304.182 27.1922 304.626 27.7531C305.069 28.3268 304.502 32.2657 302.334 34.1522C302.001 34.4455 301.681 34.2925 301.829 33.9101C302.321 32.6481 303.418 29.8055 302.901 29.1298Z" fill="white" fill-opacity="0.5"/>
</g>
</g>
</g>
<g clip-path="url(#clip10_266_13018)">
<g clip-path="url(#clip11_266_13018)">
<g clip-path="url(#clip12_266_13018)">
<mask id="mask2_266_13018" style="mask-type:luminance" maskUnits="userSpaceOnUse" x="356" y="11" width="47" height="26">
<path d="M402.241 11.8457H356.138V36.9557H402.241V11.8457Z" fill="white"/>
</mask>
<g mask="url(#mask2_266_13018)">
<path fill-rule="evenodd" clip-rule="evenodd" d="M361.978 16.861C359.011 20.3745 356.167 24.7316 356.138 27.9883C356.127 29.2137 356.515 30.2835 357.445 31.0937C358.785 32.2606 360.26 32.6721 361.728 32.6746C363.874 32.6776 366.004 31.8047 367.672 31.1316C370.482 29.9986 401.537 16.3983 401.537 16.3983C401.837 16.2469 401.781 16.0583 401.406 16.1524C401.254 16.1906 367.597 25.389 367.597 25.389C366.96 25.5707 366.301 25.6659 365.638 25.6717C363.052 25.6872 360.75 24.2392 360.769 21.1881C360.776 19.9942 361.138 18.5545 361.978 16.861Z" fill="white" fill-opacity="0.5"/>
</g>
</g>
</g>
</g>
</g>
<defs>
<clipPath id="clip0_266_13018">
<rect width="415.241" height="49.2138" fill="white"/>
</clipPath>
<clipPath id="clip1_266_13018">
<rect width="92.3668" height="27.6195" fill="white" transform="translate(0 10.5911)"/>
</clipPath>
<clipPath id="clip2_266_13018">
<rect width="92.3668" height="27.6195" fill="white" transform="translate(0 10.5911)"/>
</clipPath>
<clipPath id="clip3_266_13018">
<rect width="92.3668" height="27.6195" fill="white" transform="translate(0 10.5911)"/>
</clipPath>
<clipPath id="clip4_266_13018">
<rect width="108.572" height="28.6283" fill="white" transform="translate(115.436 10.0867)"/>
</clipPath>
<clipPath id="clip5_266_13018">
<rect width="94.5274" height="24.9251" fill="white" transform="translate(115.436 11.9382)"/>
</clipPath>
<clipPath id="clip6_266_13018">
<rect width="94.5274" height="24.9251" fill="white" transform="translate(115.436 11.9382)"/>
</clipPath>
<clipPath id="clip7_266_13018">
<rect width="78.3227" height="23.2001" fill="white" transform="translate(247.076 12.8008)"/>
</clipPath>
<clipPath id="clip8_266_13018">
<rect width="38.3511" height="23.2001" fill="white" transform="translate(267.062 12.8008)"/>
</clipPath>
<clipPath id="clip9_266_13018">
<rect width="38.3511" height="23.2001" fill="white" transform="translate(267.062 12.8008)"/>
</clipPath>
<clipPath id="clip10_266_13018">
<rect width="61.5779" height="25.11" fill="white" transform="translate(348.468 11.8457)"/>
</clipPath>
<clipPath id="clip11_266_13018">
<rect width="46.4535" height="25.11" fill="white" transform="translate(356.03 11.8457)"/>
</clipPath>
<clipPath id="clip12_266_13018">
<rect width="46.4535" height="25.11" fill="white" transform="translate(356.03 11.8457)"/>
</clipPath>
</defs>
</svg>
