<svg width="13" height="15" viewBox="0 0 13 15" fill="none" xmlns="http://www.w3.org/2000/svg">
<path d="M12.5824 5.11449C12.5066 5.15841 10.8387 6.07076 10.8577 7.96882C10.8786 10.2391 12.9759 10.9951 13 11.0037C12.9812 11.0577 12.6647 12.0805 11.8945 13.1367C11.2288 14.0518 10.5393 14.9616 9.45104 14.9806C8.38186 14.999 8.03727 14.3846 6.81585 14.3846C5.59369 14.3846 5.21115 14.9616 4.20007 14.999C3.14965 15.0363 2.34993 14.0109 1.67939 13.1009C0.308616 11.2385 -0.739443 7.8377 0.667857 5.54265C1.36652 4.40285 2.6153 3.68074 3.97025 3.66209C5.00215 3.64377 5.97532 4.31385 6.60651 4.31385C7.22868 4.31385 8.34376 3.53272 9.65815 3.62408C10.1733 3.65995 11.6357 3.8044 12.5824 5.11449ZM8.84713 2.39467C9.40536 1.7608 9.78094 0.878031 9.67752 0C8.87409 0.0299355 7.90238 0.502817 7.32611 1.13628C6.81006 1.69743 6.35685 2.59618 6.4799 3.45629C7.37541 3.5213 8.28938 3.02893 8.84713 2.39467Z" fill="white"/>
</svg>
