<svg width="21" height="21" viewBox="0 0 21 21" fill="none" xmlns="http://www.w3.org/2000/svg">
<path d="M17.8172 10.9651L12.1922 16.5901C12.0749 16.7074 11.9159 16.7733 11.75 16.7733C11.5841 16.7733 11.4251 16.7074 11.3078 16.5901C11.1905 16.4728 11.1247 16.3138 11.1247 16.1479C11.1247 15.9821 11.1905 15.823 11.3078 15.7057L15.8664 11.1479H3.625C3.45924 11.1479 3.30027 11.0821 3.18306 10.9649C3.06585 10.8476 3 10.6887 3 10.5229C3 10.3572 3.06585 10.1982 3.18306 10.081C3.30027 9.96376 3.45924 9.89792 3.625 9.89792H15.8664L11.3078 5.3401C11.1905 5.22283 11.1247 5.06377 11.1247 4.89792C11.1247 4.73206 11.1905 4.573 11.3078 4.45573C11.4251 4.33845 11.5841 4.27257 11.75 4.27257C11.9159 4.27257 12.0749 4.33845 12.1922 4.45573L17.8172 10.0807C17.8753 10.1388 17.9214 10.2077 17.9529 10.2836C17.9843 10.3595 18.0005 10.4408 18.0005 10.5229C18.0005 10.6051 17.9843 10.6864 17.9529 10.7623C17.9214 10.8381 17.8753 10.9071 17.8172 10.9651Z" fill="white"/>
</svg>
